<svg width="1200" height="800" viewBox="0 0 1200 800" xmlns="http://www.w3.org/2000/svg">
  <defs>
    <pattern id="grid" width="40" height="40" patternUnits="userSpaceOnUse">
      <path d="M 40 0 L 0 0 0 40" fill="none" stroke="rgba(0,229,255,0.15)" stroke-width="1"/>
    </pattern>
  </defs>
  <rect width="1200" height="800" fill="#060910" />
  <rect width="1200" height="800" fill="url(#grid)" />
  <rect x="1" y="1" width="1198" height="798" fill="none" stroke="rgba(0,229,255,0.35)" stroke-width="2" />

  <rect x="0" y="0" width="1200" height="56" fill="rgba(10,15,25,0.9)" />
  <line x1="0" y1="56" x2="1200" y2="56" stroke="rgba(0,229,255,0.35)" stroke-width="1" />
  <circle cx="28" cy="28" r="6" fill="#ff5f57" opacity="0.6" />
  <circle cx="50" cy="28" r="6" fill="#febc2e" opacity="0.6" />
  <circle cx="72" cy="28" r="6" fill="#28c840" opacity="0.6" />
  <text x="600" y="34" text-anchor="middle" font-family="Fira Code, monospace" font-size="15" fill="#8892b0">app.allrev.com.br — /orders/create</text>
<text x="60" y="100" font-family="Rajdhani, sans-serif" font-size="26" font-weight="700" fill="#e2e8f0" text-anchor="start">Nova Ordem de Servico</text><text x="60" y="128" font-family="Rajdhani, sans-serif" font-size="13" font-weight="500" fill="#8892b0" text-anchor="start">Cadastre o cliente, defina os servicos e gere as parcelas</text><rect x="60" y="160" width="680" height="260" rx="10" fill="rgba(10,15,25,0.9)" stroke="rgba(0,229,255,0.35)" stroke-width="1.5" /><text x="90" y="195" font-family="Rajdhani, sans-serif" font-size="16" font-weight="700" fill="#e2e8f0" text-anchor="start">Dados Iniciais</text><text x="90" y="225" font-family="Rajdhani, sans-serif" font-size="12" font-weight="500" fill="#8892b0" text-anchor="start">Cliente *</text><rect x="90" y="235" width="300" height="40" rx="6" fill="rgba(10,15,25,0.9)" stroke="rgba(0,229,255,0.35)" stroke-width="1.5" /><text x="410" y="225" font-family="Rajdhani, sans-serif" font-size="12" font-weight="500" fill="#8892b0" text-anchor="start">Data do Contrato *</text><rect x="410" y="235" width="300" height="40" rx="6" fill="rgba(10,15,25,0.9)" stroke="rgba(0,229,255,0.35)" stroke-width="1.5" /><text x="90" y="300" font-family="Rajdhani, sans-serif" font-size="12" font-weight="500" fill="#8892b0" text-anchor="start">Descricao / Identificacao *</text><rect x="90" y="310" width="620" height="40" rx="6" fill="rgba(10,15,25,0.9)" stroke="rgba(0,229,255,0.35)" stroke-width="1.5" /><text x="105" y="335" font-family="Rajdhani, sans-serif" font-size="13" font-weight="500" fill="#8892b0" text-anchor="start">Trabalho Academico</text><text x="90" y="380" font-family="Rajdhani, sans-serif" font-size="15" font-weight="700" fill="#e2e8f0" text-anchor="start">Servicos Contratados</text><rect x="760" y="160" width="380" height="420" rx="10" fill="rgba(10,15,25,0.9)" stroke="rgba(0,229,255,0.35)" stroke-width="1.5" /><text x="790" y="195" font-family="Rajdhani, sans-serif" font-size="16" font-weight="700" fill="#e2e8f0" text-anchor="start">Pagamento</text><text x="790" y="235" font-family="Rajdhani, sans-serif" font-size="11" font-weight="500" fill="#8892b0" text-anchor="start">VALOR TOTAL DA ORDEM</text><text x="790" y="275" font-family="Rajdhani, sans-serif" font-size="28" font-weight="700" fill="#00e5ff" text-anchor="start">R$ 0,00</text><rect x="790" y="470" width="320" height="46" rx="23.0" fill="#00e5ff" stroke="#00e5ff" stroke-width="1.5" /><text x="950.0" y="497.3333333333333" font-family="Rajdhani, sans-serif" font-size="13" font-weight="600" fill="#060910" text-anchor="middle">Confirmar e Gerar Ordem</text>
</svg>