<svg width="1200" height="900" viewBox="0 0 1200 900" xmlns="http://www.w3.org/2000/svg">
  <defs>
    <pattern id="grid" width="40" height="40" patternUnits="userSpaceOnUse">
      <path d="M 40 0 L 0 0 0 40" fill="none" stroke="rgba(0,229,255,0.15)" stroke-width="1"/>
    </pattern>
  </defs>
  <rect width="1200" height="900" fill="#060910" />
  <rect width="1200" height="900" fill="url(#grid)" />
  <rect x="1" y="1" width="1198" height="898" fill="none" stroke="rgba(0,229,255,0.35)" stroke-width="2" />

  <rect x="0" y="0" width="1200" height="56" fill="rgba(10,15,25,0.9)" />
  <line x1="0" y1="56" x2="1200" y2="56" stroke="rgba(0,229,255,0.35)" stroke-width="1" />
  <circle cx="28" cy="28" r="6" fill="#ff5f57" opacity="0.6" />
  <circle cx="50" cy="28" r="6" fill="#febc2e" opacity="0.6" />
  <circle cx="72" cy="28" r="6" fill="#28c840" opacity="0.6" />
  <text x="600" y="34" text-anchor="middle" font-family="Fira Code, monospace" font-size="15" fill="#8892b0">ConcursoTrack — /fila</text>
<text x="60" y="120" font-family="Rajdhani, sans-serif" font-size="32" font-weight="700" fill="#e2e8f0" text-anchor="start">Fila de Estudos</text><text x="60" y="148" font-family="Rajdhani, sans-serif" font-size="15" font-weight="500" fill="#8892b0" text-anchor="start">0 de 161 concluidos</text><rect x="60" y="190" width="1080" height="240" rx="10" fill="rgba(10,15,25,0.9)" stroke="rgba(0,229,255,0.35)" stroke-width="1.5" /><text x="90" y="226" font-family="Rajdhani, sans-serif" font-size="18" font-weight="700" fill="#e2e8f0" text-anchor="start">Banco de Dados</text><rect x="360" y="206" width="140" height="30" rx="15.0" fill="#00e5ff" stroke="#00e5ff" stroke-width="1.5" /><text x="430.0" y="225.0" font-family="Rajdhani, sans-serif" font-size="12" font-weight="600" fill="#060910" text-anchor="middle">em andamento</text><rect x="700" y="214" width="300" height="8" rx="4.0" fill="rgba(255,255,255,0.06)" /><rect x="700" y="214" width="6" height="8" rx="4.0" fill="#00e5ff" /><text x="1010" y="210" font-family="Rajdhani, sans-serif" font-size="13" font-weight="500" fill="#8892b0" text-anchor="end">0/9</text><rect x="90" y="260" width="1020" height="55" rx="8" fill="rgba(10,15,25,0.9)" stroke="rgba(0,229,255,0.35)" stroke-width="1.5" /><circle cx="115" cy="287" r="10" fill="none" stroke="#00e5ff" stroke-width="2" /><text x="140" y="284" font-family="Rajdhani, sans-serif" font-size="14" font-weight="500" fill="#e2e8f0" text-anchor="start">COBIT 2019: principios, dominios, objetivos</text><text x="140" y="302" font-family="Rajdhani, sans-serif" font-size="11" font-weight="500" fill="#00e5ff" text-anchor="start">Em andamento</text><rect x="90" y="322" width="1020" height="55" rx="8" fill="rgba(10,15,25,0.9)" stroke="rgba(0,229,255,0.35)" stroke-width="1.5" /><circle cx="115" cy="349" r="10" fill="none" stroke="#00e5ff" stroke-width="2" /><text x="140" y="346" font-family="Rajdhani, sans-serif" font-size="14" font-weight="500" fill="#e2e8f0" text-anchor="start">ITIL 4: conceitos, praticas principais</text><text x="140" y="364" font-family="Rajdhani, sans-serif" font-size="11" font-weight="500" fill="#8892b0" text-anchor="start">Nao iniciado</text><rect x="90" y="384" width="1020" height="55" rx="8" fill="rgba(10,15,25,0.9)" stroke="rgba(0,229,255,0.35)" stroke-width="1.5" /><circle cx="115" cy="411" r="10" fill="none" stroke="#00e5ff" stroke-width="2" /><text x="140" y="408" font-family="Rajdhani, sans-serif" font-size="14" font-weight="500" fill="#e2e8f0" text-anchor="start">PMBOK 7: principios, dominios de desempenho</text><text x="140" y="426" font-family="Rajdhani, sans-serif" font-size="11" font-weight="500" fill="#8892b0" text-anchor="start">Nao iniciado</text><rect x="60" y="450" width="1080" height="240" rx="10" fill="rgba(10,15,25,0.9)" stroke="rgba(0,229,255,0.35)" stroke-width="1.5" /><text x="90" y="486" font-family="Rajdhani, sans-serif" font-size="18" font-weight="700" fill="#e2e8f0" text-anchor="start">Seguranca da Informacao</text><rect x="360" y="466" width="140" height="30" rx="15.0" fill="#00e5ff" stroke="#00e5ff" stroke-width="1.5" /><text x="430.0" y="485.0" font-family="Rajdhani, sans-serif" font-size="12" font-weight="600" fill="#060910" text-anchor="middle">em andamento</text><rect x="700" y="474" width="300" height="8" rx="4.0" fill="rgba(255,255,255,0.06)" /><rect x="700" y="474" width="6" height="8" rx="4.0" fill="#00e5ff" /><text x="1010" y="470" font-family="Rajdhani, sans-serif" font-size="13" font-weight="500" fill="#8892b0" text-anchor="end">0/10</text><rect x="90" y="520" width="1020" height="55" rx="8" fill="rgba(10,15,25,0.9)" stroke="rgba(0,229,255,0.35)" stroke-width="1.5" /><circle cx="115" cy="547" r="10" fill="none" stroke="#00e5ff" stroke-width="2" /><text x="140" y="544" font-family="Rajdhani, sans-serif" font-size="14" font-weight="500" fill="#e2e8f0" text-anchor="start">COBIT 2019: principios, dominios, objetivos</text><text x="140" y="562" font-family="Rajdhani, sans-serif" font-size="11" font-weight="500" fill="#00e5ff" text-anchor="start">Em andamento</text><rect x="90" y="582" width="1020" height="55" rx="8" fill="rgba(10,15,25,0.9)" stroke="rgba(0,229,255,0.35)" stroke-width="1.5" /><circle cx="115" cy="609" r="10" fill="none" stroke="#00e5ff" stroke-width="2" /><text x="140" y="606" font-family="Rajdhani, sans-serif" font-size="14" font-weight="500" fill="#e2e8f0" text-anchor="start">ITIL 4: conceitos, praticas principais</text><text x="140" y="624" font-family="Rajdhani, sans-serif" font-size="11" font-weight="500" fill="#8892b0" text-anchor="start">Nao iniciado</text><rect x="90" y="644" width="1020" height="55" rx="8" fill="rgba(10,15,25,0.9)" stroke="rgba(0,229,255,0.35)" stroke-width="1.5" /><circle cx="115" cy="671" r="10" fill="none" stroke="#00e5ff" stroke-width="2" /><text x="140" y="668" font-family="Rajdhani, sans-serif" font-size="14" font-weight="500" fill="#e2e8f0" text-anchor="start">PMBOK 7: principios, dominios de desempenho</text><text x="140" y="686" font-family="Rajdhani, sans-serif" font-size="11" font-weight="500" fill="#8892b0" text-anchor="start">Nao iniciado</text><rect x="60" y="710" width="1080" height="60" rx="10" fill="rgba(10,15,25,0.9)" stroke="rgba(0,229,255,0.35)" stroke-width="1.5" /><text x="90" y="746" font-family="Rajdhani, sans-serif" font-size="18" font-weight="700" fill="#e2e8f0" text-anchor="start">Governanca de TI</text><rect x="700" y="734" width="300" height="8" rx="4.0" fill="rgba(255,255,255,0.06)" /><rect x="700" y="734" width="6" height="8" rx="4.0" fill="#00e5ff" /><text x="1010" y="730" font-family="Rajdhani, sans-serif" font-size="13" font-weight="500" fill="#8892b0" text-anchor="end">0/7</text>
</svg>