<svg width="1200" height="800" viewBox="0 0 1200 800" xmlns="http://www.w3.org/2000/svg">
  <defs>
    <pattern id="grid" width="40" height="40" patternUnits="userSpaceOnUse">
      <path d="M 40 0 L 0 0 0 40" fill="none" stroke="rgba(0,229,255,0.15)" stroke-width="1"/>
    </pattern>
  </defs>
  <rect width="1200" height="800" fill="#060910" />
  <rect width="1200" height="800" fill="url(#grid)" />
  <rect x="1" y="1" width="1198" height="798" fill="none" stroke="rgba(0,229,255,0.35)" stroke-width="2" />

  <rect x="0" y="0" width="1200" height="56" fill="rgba(10,15,25,0.9)" />
  <line x1="0" y1="56" x2="1200" y2="56" stroke="rgba(0,229,255,0.35)" stroke-width="1" />
  <circle cx="28" cy="28" r="6" fill="#ff5f57" opacity="0.6" />
  <circle cx="50" cy="28" r="6" fill="#febc2e" opacity="0.6" />
  <circle cx="72" cy="28" r="6" fill="#28c840" opacity="0.6" />
  <text x="600" y="34" text-anchor="middle" font-family="Fira Code, monospace" font-size="15" fill="#8892b0">ConcursoTrack — /inicio</text>
<text x="60" y="130" font-family="Rajdhani, sans-serif" font-size="40" font-weight="700" fill="#e2e8f0" text-anchor="start">Ola, Rebeca</text><text x="60" y="160" font-family="Rajdhani, sans-serif" font-size="16" font-weight="500" fill="#8892b0" text-anchor="start">Bora estudar hoje!</text><rect x="60" y="190" width="110" height="34" rx="17.0" fill="#00e5ff" stroke="#00e5ff" stroke-width="1.5" /><text x="115.0" y="211.33333333333334" font-family="Rajdhani, sans-serif" font-size="13" font-weight="600" fill="#060910" text-anchor="middle">Inicio</text><rect x="180" y="190" width="130" height="34" rx="17.0" fill="transparent" stroke="rgba(0,229,255,0.35)" stroke-width="1.5" /><text x="245.0" y="211.33333333333334" font-family="Rajdhani, sans-serif" font-size="13" font-weight="600" fill="#00e5ff" text-anchor="middle">Fraquezas</text><rect x="320" y="190" width="110" height="34" rx="17.0" fill="transparent" stroke="rgba(0,229,255,0.35)" stroke-width="1.5" /><text x="375.0" y="211.33333333333334" font-family="Rajdhani, sans-serif" font-size="13" font-weight="600" fill="#00e5ff" text-anchor="middle">Hoje  9</text><rect x="60" y="250" width="1080" height="150" rx="10" fill="rgba(10,15,25,0.9)" stroke="rgba(0,229,255,0.35)" stroke-width="1.5" /><text x="90" y="285" font-family="Rajdhani, sans-serif" font-size="13" font-weight="700" fill="#00e5ff" text-anchor="start">EM ANDAMENTO</text><text x="90" y="318" font-family="Rajdhani, sans-serif" font-size="22" font-weight="700" fill="#e2e8f0" text-anchor="start">Modelo relacional: conceitos, integridade,</text><text x="90" y="344" font-family="Rajdhani, sans-serif" font-size="22" font-weight="700" fill="#e2e8f0" text-anchor="start">normalizacao (1FN, 2FN, 3FN, FNBC)</text><text x="90" y="370" font-family="Rajdhani, sans-serif" font-size="14" font-weight="500" fill="#8892b0" text-anchor="start">Banco de Dados</text><rect x="90" y="385" width="190" height="36" rx="18.0" fill="#00e5ff" stroke="#00e5ff" stroke-width="1.5" /><text x="185.0" y="407.3333333333333" font-family="Rajdhani, sans-serif" font-size="13" font-weight="600" fill="#060910" text-anchor="middle">Continuar estudo -></text><rect x="60" y="430" width="520" height="220" rx="10" fill="rgba(10,15,25,0.9)" stroke="rgba(0,229,255,0.35)" stroke-width="1.5" /><text x="90" y="465" font-family="Rajdhani, sans-serif" font-size="16" font-weight="500" fill="#8892b0" text-anchor="start">Questoes resolvidas</text><text x="90" y="520" font-family="Rajdhani, sans-serif" font-size="44" font-weight="700" fill="#00e5ff" text-anchor="start">0</text><text x="140" y="520" font-family="Rajdhani, sans-serif" font-size="14" font-weight="500" fill="#8892b0" text-anchor="start">hoje</text><text x="500" y="465" font-family="Rajdhani, sans-serif" font-size="13" font-weight="500" fill="#8892b0" text-anchor="end">200 no total</text><rect x="90" y="560" width="460" height="10" rx="5.0" fill="rgba(255,255,255,0.06)" /><rect x="90" y="560" width="6" height="10" rx="5.0" fill="#00e5ff" /><text x="90" y="595" font-family="Rajdhani, sans-serif" font-size="13" font-weight="500" fill="#8892b0" text-anchor="start">Meta semanal  0/450</text><rect x="610" y="430" width="160" height="100" rx="10" fill="rgba(10,15,25,0.9)" stroke="rgba(0,229,255,0.35)" stroke-width="1.5" /><text x="690" y="470" font-family="Rajdhani, sans-serif" font-size="26" font-weight="700" fill="#e2e8f0" text-anchor="middle">0</text><text x="690" y="500" font-family="Rajdhani, sans-serif" font-size="11" font-weight="500" fill="#8892b0" text-anchor="middle">dias seguidos</text><rect x="790" y="430" width="160" height="100" rx="10" fill="rgba(10,15,25,0.9)" stroke="rgba(0,229,255,0.35)" stroke-width="1.5" /><text x="870" y="470" font-family="Rajdhani, sans-serif" font-size="26" font-weight="700" fill="#e2e8f0" text-anchor="middle">0</text><text x="870" y="500" font-family="Rajdhani, sans-serif" font-size="11" font-weight="500" fill="#8892b0" text-anchor="middle">concluidos</text><rect x="970" y="430" width="160" height="100" rx="10" fill="rgba(10,15,25,0.9)" stroke="rgba(0,229,255,0.35)" stroke-width="1.5" /><text x="1050" y="470" font-family="Rajdhani, sans-serif" font-size="26" font-weight="700" fill="#e2e8f0" text-anchor="middle">161</text><text x="1050" y="500" font-family="Rajdhani, sans-serif" font-size="11" font-weight="500" fill="#8892b0" text-anchor="middle">topicos</text><rect x="60" y="670" width="1080" height="100" rx="10" fill="rgba(10,15,25,0.9)" stroke="rgba(0,229,255,0.35)" stroke-width="1.5" /><text x="90" y="700" font-family="Rajdhani, sans-serif" font-size="14" font-weight="500" fill="#8892b0" text-anchor="start">Dias estudados (7 semanas)</text><rect x="90" y="715" width="8" height="8" rx="2" fill="#00e5ff" /><rect x="90" y="727" width="8" height="8" rx="2" fill="rgba(255,255,255,0.08)" /><rect x="90" y="739" width="8" height="8" rx="2" fill="rgba(255,255,255,0.08)" /><rect x="90" y="751" width="8" height="8" rx="2" fill="rgba(255,255,255,0.08)" /><rect x="235" y="715" width="8" height="8" rx="2" fill="rgba(255,255,255,0.08)" /><rect x="235" y="727" width="8" height="8" rx="2" fill="rgba(255,255,255,0.08)" /><rect x="235" y="739" width="8" height="8" rx="2" fill="rgba(255,255,255,0.08)" /><rect x="235" y="751" width="8" height="8" rx="2" fill="rgba(255,255,255,0.08)" /><rect x="380" y="715" width="8" height="8" rx="2" fill="rgba(255,255,255,0.08)" /><rect x="380" y="727" width="8" height="8" rx="2" fill="rgba(255,255,255,0.08)" /><rect x="380" y="739" width="8" height="8" rx="2" fill="rgba(255,255,255,0.08)" /><rect x="380" y="751" width="8" height="8" rx="2" fill="rgba(255,255,255,0.08)" /><rect x="525" y="715" width="8" height="8" rx="2" fill="#00e5ff" /><rect x="525" y="727" width="8" height="8" rx="2" fill="rgba(255,255,255,0.08)" /><rect x="525" y="739" width="8" height="8" rx="2" fill="rgba(255,255,255,0.08)" /><rect x="525" y="751" width="8" height="8" rx="2" fill="rgba(255,255,255,0.08)" /><rect x="670" y="715" width="8" height="8" rx="2" fill="rgba(255,255,255,0.08)" /><rect x="670" y="727" width="8" height="8" rx="2" fill="rgba(255,255,255,0.08)" /><rect x="670" y="739" width="8" height="8" rx="2" fill="rgba(255,255,255,0.08)" /><rect x="670" y="751" width="8" height="8" rx="2" fill="rgba(255,255,255,0.08)" /><rect x="815" y="715" width="8" height="8" rx="2" fill="rgba(255,255,255,0.08)" /><rect x="815" y="727" width="8" height="8" rx="2" fill="rgba(255,255,255,0.08)" /><rect x="815" y="739" width="8" height="8" rx="2" fill="rgba(255,255,255,0.08)" /><rect x="815" y="751" width="8" height="8" rx="2" fill="rgba(255,255,255,0.08)" /><rect x="960" y="715" width="8" height="8" rx="2" fill="rgba(255,255,255,0.08)" /><rect x="960" y="727" width="8" height="8" rx="2" fill="rgba(255,255,255,0.08)" /><rect x="960" y="739" width="8" height="8" rx="2" fill="rgba(255,255,255,0.08)" /><rect x="960" y="751" width="8" height="8" rx="2" fill="rgba(255,255,255,0.08)" />
</svg>